<?xml version="1.0" encoding="UTF-8"?>
<!DOCTYPE svg PUBLIC "-//W3C//DTD SVG 1.1//EN" "http://www.w3.org/Graphics/SVG/1.1/DTD/svg11.dtd">
<!-- Creator: CorelDRAW -->
<svg xmlns="http://www.w3.org/2000/svg" xml:space="preserve" width="1122px" height="1122px" style="shape-rendering:geometricPrecision; text-rendering:geometricPrecision; image-rendering:optimizeQuality; fill-rule:evenodd; clip-rule:evenodd"
viewBox="0 0 872.173 872.134"
 xmlns:xlink="http://www.w3.org/1999/xlink">
 <defs>
  <style type="text/css">
   <![CDATA[
    .fil1 {fill:#332C2B}
    .fil2 {fill:#FEFEFE}
    .fil0 {fill:url(#id0)}
   ]]>
  </style>
  <linearGradient id="id0" gradientUnits="userSpaceOnUse" x1="-0" y1="436.067" x2="872.173" y2="436.067">
   <stop offset="0" style="stop-color:#009E9D"/>
   <stop offset="1" style="stop-color:#42E4E3"/>
  </linearGradient>
 </defs>
 <g id="图层_x0020_1">
  <metadata id="CorelCorpID_0Corel-Layer"/>
  <ellipse class="fil0" cx="436.086" cy="436.067" rx="436.086" ry="436.068"/>
  <g id="_370182616">
   <path id="_370182784" class="fil1" d="M413.004 443.128c8.80988,-17.3911 1.77539,-38.8748 -15.6203,-47.614 -4.92938,-2.48536 -10.3685,-4.06144 -15.894,-4.06144l-68.3547 0.00367385c-24.3705,0 -44.2138,-19.2537 -44.3149,-43.6352 0,-1.50903 0.0413308,-2.57169 0.199306,-4.08072 2.88672,-23.0681 22.7328,-40.9028 45.9883,-39.3368l358.133 0c4.92938,0 8.89714,-4.34708 8.8705,-9.31412 -0.0183692,-2.21808 -0.856006,-4.54179 -2.37606,-6.16747 -2.29707,-2.47342 -4.97806,-4.65109 -7.93183,-6.25748l-213.037 -123.113c-10.9205,-6.2685 -24.3705,-6.2685 -35.2983,0l-213.101 123.068c-10.9205,6.2685 -17.7493,17.8834 -17.7493,30.4773l0 245.918c0,12.5829 6.82876,24.2612 17.7493,30.549l83.9557 48.4709c8.44617,4.91744 19.2464,1.98204 24.1225,-6.40443 0.176345,-0.304011 0.356363,-0.649352 0.503317,-0.964385l94.1552 -187.538zm189.669 -51.6717c-40.0165,0 -76.6135,22.8495 -94.6089,58.5905l-121.292 241.372 36.4014 21.1457c10.9196,6.25748 24.3695,6.32544 35.2974,0l213.398 -123.008c10.9196,-6.32544 17.8567,-17.955 17.8567,-30.549l0 -149.398c0,-9.7559 -8.29554,-18.1607 -18.0221,-18.1607l-69.0307 0.00734769z"/>
   <path id="_370182880" class="fil2" d="M402.933 443.128c8.80988,-17.3911 1.77539,-38.8748 -15.6203,-47.614 -4.92938,-2.48536 -10.3685,-4.06144 -15.894,-4.06144l-68.3547 0.00367385c-24.3705,0 -44.2138,-19.2537 -44.3149,-43.6352 0,-1.50903 0.0413308,-2.57169 0.199306,-4.08072 2.88672,-23.0681 22.7328,-40.9028 45.9883,-39.3368l358.133 0c4.92938,0 8.89714,-4.34708 8.8705,-9.31412 -0.0183692,-2.21808 -0.856006,-4.54179 -2.37606,-6.16747 -2.29707,-2.47342 -4.97806,-4.65109 -7.93183,-6.25748l-213.037 -123.113c-10.9205,-6.2685 -24.3705,-6.2685 -35.2983,0l-213.101 123.068c-10.9205,6.2685 -17.7493,17.8834 -17.7493,30.4773l0 245.918c0,12.5829 6.82876,24.2612 17.7493,30.549l83.9557 48.4709c8.44617,4.91744 19.2464,1.98204 24.1225,-6.40443 0.176345,-0.304011 0.356363,-0.649352 0.503317,-0.964385l94.1552 -187.538zm189.669 -51.6717c-40.0165,0 -76.6135,22.8495 -94.6089,58.5905l-121.292 241.372 36.4014 21.1457c10.9196,6.25748 24.3695,6.32544 35.2974,0l213.398 -123.008c10.9196,-6.32544 17.8567,-17.955 17.8567,-30.549l0 -149.398c0,-9.7559 -8.29554,-18.1607 -18.0221,-18.1607l-69.0307 0.00734769z"/>
  </g>
 </g>
</svg>
