<?xml version="1.0" encoding="UTF-8"?>
<!DOCTYPE svg PUBLIC "-//W3C//DTD SVG 1.1//EN" "http://www.w3.org/Graphics/SVG/1.1/DTD/svg11.dtd">
<!-- Creator: CorelDRAW -->
<svg xmlns="http://www.w3.org/2000/svg" xml:space="preserve" width="365px" height="365px" style="shape-rendering:geometricPrecision; text-rendering:geometricPrecision; image-rendering:optimizeQuality; fill-rule:evenodd; clip-rule:evenodd"
viewBox="0 0 451.564 451.565"
 xmlns:xlink="http://www.w3.org/1999/xlink">
 <defs>
  <style type="text/css">
   <![CDATA[
    .fil1 {fill:none}
    .fil0 {fill:black}
   ]]>
  </style>
 </defs>
 <g id="图层_x0020_1">
  <metadata id="CorelCorpID_0Corel-Layer"/>
  <path class="fil0" d="M350.616 191.725c-30.9047,0.00876729 -59.1661,17.4352 -73.0579,45.0434l-93.6698 186.315 28.0977 16.2604c8.43852,4.85416 18.8161,4.85416 27.2488,0l164.685 -95.0287c8.43998,-4.85124 13.6404,-13.8479 13.6244,-23.5855l0.00146122 -115.383c0,-7.52672 -6.10204,-13.6215 -13.6258,-13.6215l-53.3037 0zm-146.461 39.5098c6.77273,-13.4403 1.36478,-29.8205 -12.0726,-36.6005 -3.81231,-1.91858 -8.02061,-2.91513 -12.2874,-2.90928l-52.7923 0c-18.8102,0.0832893 -34.1296,-15.0885 -34.2217,-33.9002 -0.00730608,-1.16313 0.0467589,-2.32479 0.160734,-3.48646 2.22105,-17.8268 17.5492,-31.0947 35.5075,-30.7381l276.576 0c3.81231,-0.0233795 6.88086,-3.12992 6.86187,-6.94224 -0.0116897,-1.72423 -0.667776,-3.37979 -1.83383,-4.6452 -1.78707,-1.89081 -3.85469,-3.49815 -6.1298,-4.76941l-164.518 -95.0243c-8.4356,-4.8527 -18.8161,-4.8527 -27.2517,0l-164.517 95.0243c-8.43852,4.85708 -13.6361,13.8552 -13.62,23.5869l0 189.898c-0.0160734,9.73462 5.18147,18.7372 13.62,23.5855l64.8035 37.4714c6.51702,3.75532 14.8518,1.51382 18.6115,-5.00466 0.134432,-0.235256 0.261558,-0.466128 0.3843,-0.701384l72.7189 -144.844z"/>
  <rect class="fil1" width="451.564" height="451.565"/>
 </g>
</svg>
